<?xml version="1.0" encoding="utf-8"?>
<!-- Generator: Adobe Illustrator 23.0.6, SVG Export Plug-In . SVG Version: 6.00 Build 0)  -->
<svg version="1.1" id="Capa_1" xmlns="http://www.w3.org/2000/svg" xmlns:xlink="http://www.w3.org/1999/xlink" x="0px" y="0px"
	 viewBox="0 0 698.7 698.7" style="enable-background:new 0 0 698.7 698.7;" xml:space="preserve">
<style type="text/css">
	.st0{fill:#EF6C00;}
	.st1{fill:#C49000;}
	.st2{fill:#5D4037;}
	.st3{fill:#FFD95B;}
	.st4{fill:#C77800;}
	.st5{fill:#070707;}
</style>
<g>
	<g>
		<path class="st0" d="M581.7,251c1.3-3.5,3.1-9.3,3.1-16.5c0-8-2.2-13.9-3.8-18.2c-0.9-2.3-4.1-10.4-11.5-19
			c-4.2-4.9-4.6-4-16.1-14.1c-5.3-4.7-11.2-9.9-18.3-17.4c-4-4.2-10.7-11.6-10.7-11.6l0,0c-12.6-3.7-19.2-1.2-22.9,1.7
			c-3.9,3.1-3.7,5.9-10.7,16.5c-7.2,10.9-8.6,9.7-11.5,15.7c-6.3,13.3-3.1,27.3-3.8,27.3c-0.6,0-2.7-9.8-0.8-10.8
			c3-1.4,16.9,17.8,19.1,33.1c0.2,1.5,0.6,4.6,2.3,8.3c2.2,4.7,4.5,5.5,9.2,10.8c6.7,7.6,5.7,10.2,9.9,12.4c3.2,1.6,5.2,1,12.2,0.8
			c4.2-0.1,10.2,0,17.6,0.8"/>
		<path class="st0" d="M114,246.4c-1.6-3.5-3.6-9.3-3.6-16.5c0-8,2.6-13.9,4.5-18.2c1-2.3,4.8-10.4,13.5-19c4.9-4.9,5.4-4,18.9-14.1
			c6.3-4.7,13.2-9.9,21.6-17.4c4.7-4.2,12.6-11.6,12.6-11.6l0,0c14.8-3.7,22.6-1.2,27,1.7c4.6,3.1,4.3,5.9,12.6,16.5
			c8.4,10.9,10.2,9.7,13.5,15.7c7.4,13.3,3.6,27.3,4.5,27.3c0.7,0,3.2-9.8,0.9-10.8c-3.6-1.4-19.9,17.8-22.5,33.1
			c-0.3,1.5-0.7,4.6-2.7,8.3c-2.6,4.7-5.3,5.5-10.8,10.8c-7.9,7.6-6.7,10.2-11.7,12.4c-3.7,1.6-6.2,1-14.4,0.8
			c-4.9-0.1-12,0-20.7,0.8"/>
		<path class="st1" d="M588.5,311.4c5.7-10.2,10.2-18.1,13.2-23.2c0,0,4.9-8.4,9.4-20.7c2-5.4,3-9.1,0.9-12.4
			c-2.4-4.1-7.9-5.4-9.4-5.8c-4.4-1.1-6.8-0.1-16,0.8c-9.8,1-8.5,0-13.2,0.8c-7.3,1.3-8.4,3.4-19.8,7.4c-8.3,3-7.9,1.9-13.2,4.1
			c-11.4,4.7-17.4,11.2-17.9,10.8c-0.5-0.5,6.2-6.9,6.6-6.6c0.6,0.4-17.3,14.1-14.1,26.5c0.7,2.6,2,4.3,2.8,9.1
			c0.8,4.7,0.2,7.5,0,11.6c-0.6,10.5,1.4,19.9,1.9,19.9c0.6,0,1-10.6,0-10.8c-0.6-0.1-2.1,3.8-5.7,20.7c-0.3,2.9-0.1,7.1,2.8,10.8
			c2.6,3.2,5.9,4.1,14.1,7.4c8.1,3.3,12.2,4.9,15.1,6.6c13.2,7.9,9.8,18.4,20.7,22.3c5.6,2,11.2,1,17,0c5.1-0.9,11.7-2,13.2-5.8
			c1.2-3-2.1-4.5-1.9-9.9c0.2-4.5,2.4-4.6,2.8-9.1c0.5-4.8-2-5.5-2.8-12.4c-0.6-5.2,0.7-5.4,0-9.9c-0.8-5.3-3-7.2-4.7-11.6
			c-1.4-3.5-2.6-8.9-0.9-16.5"/>
		<path class="st1" d="M121.2,310.1c-5.4-10.2-9.8-18.1-12.6-23.2c0,0-4.7-8.4-9-20.7c-1.9-5.4-2.8-9.1-0.9-12.4
			c2.3-4.1,7.6-5.4,9-5.8c4.2-1.1,6.5-0.1,15.3,0.8c9.3,1,8.1,0,12.6,0.8c7,1.3,8.1,3.4,18.9,7.4c8,3,7.5,1.9,12.6,4.1
			c10.9,4.7,16.6,11.2,17.1,10.8c0.5-0.5-5.9-6.9-6.3-6.6c-0.6,0.4,16.5,14.1,13.5,26.5c-0.6,2.6-1.9,4.3-2.7,9.1
			c-0.7,4.7-0.2,7.5,0,11.6c0.6,10.5-1.3,19.9-1.8,19.9c-0.5,0-1-10.6,0-10.8c0.6-0.1,2,3.8,5.4,20.7c0.3,2.9,0.1,7.1-2.7,10.8
			c-2.5,3.2-5.6,4.1-13.5,7.4c-7.8,3.3-11.7,4.9-14.4,6.6c-12.6,7.9-9.4,18.4-19.8,22.3c-5.3,2-10.7,1-16.2,0
			c-4.9-0.9-11.1-2-12.6-5.8c-1.2-3,2-4.5,1.8-9.9c-0.2-4.5-2.3-4.6-2.7-9.1c-0.4-4.8,1.9-5.5,2.7-12.4c0.6-5.2-0.7-5.4,0-9.9
			c0.8-5.3,2.9-7.2,4.5-11.6c1.3-3.5,2.4-8.9,0.9-16.5"/>
		<path class="st2" d="M186.9,321.6L186.9,321.6c0.2-3.6,0.6-8.8,1.8-14.9c1.6-8,3.7-13.7,6.3-20.7c8.4-22.2,12.6-33.4,15.3-38.1
			c1.4-2.5,6.3-10.7,14.4-19.9c8.7-9.9,25.2-28.7,49.5-35.6c20.8-5.9,20.7,4.5,63.9,1.7c2.3-0.2,20.6-1.4,44.1-3.3
			c14.4-1.2,17.9-1.6,24.3-0.8c18.4,2.2,31.8,10.4,33.3,8.3c0.9-1.4-4.1-5.3-3.6-5.8c1.2-1.3,34.1,23.3,34.2,23.2
			c0.1-0.1-6.4-4.9-6.3-5c0.1-0.1,6.8,4,13.5,9.9c4.9,4.3,7.2,7.3,14.4,15.7c12.6,14.8,11.5,12.6,14.4,16.5
			c11.6,15.6,14.9,30.7,15.3,30.6c0.3-0.1-3.9-10.7-3.6-10.8c0.3-0.1,10.6,18.4,8.1,31.4c-0.2,1.3-0.9,4.1-1.8,9.1
			c-1,5.7-1,7.1-1.8,9.9c-1,3.4-2.3,6.2-4.5,9.9c-7,11.9-15.4,20.6-15.3,20.7c0.1,0.1,10.1-9.6,9-10.8c-1.4-1.5-22.5,10.5-31.5,21.5
			c-1.3,1.6-4,5.2-9,8.3c-4.2,2.6-5.6,2.1-8.1,4.1c-4.1,3.4-4.8,8.3-5.6,14.7c-0.7,5-0.4,8.9,0.2,16.7c0.1,1,0.3,3.7,0.9,9.1
			c1.3,11.4,2.1,14.1,2.7,19.9c1.2,10.9,1.7,16.3,0,20.7c-5.5,13.9-26.7,19.4-27,19c-0.2-0.3,7.3-4.9,7.2-5c-0.1-0.1-8.4,8.2-18,7.4
			c-3.1-0.3-3.4-1.2-9.9-3.3c-5.7-1.8-9.3-2.3-14.4-3.3c0,0-3.3-0.6-35.1-9.1l0,0c-4.9-1.8-13.5-4-23.4-2.5c-1.9,0.3-6.5,1-11.7,3.3
			c0,0-2.3,1-11.7,6.6l0,0c-2.3,1.9-18,14.7-34.2,10.8c-6-1.5-10.9-4.9-14.4-7.4c-1.6-1.1-8.7-6.3-14.8-15.6
			c-2.1-3.2-3.4-5.8-4.3-7.7c-6.2-12.8-7.9-25.5-7.9-25.5l0,0c0.8,10.2,0.9,12.4,0.9,12.4c-0.1,0-1.9-11.8-0.9-26.5
			c0.3-4.9,0.6-5,0.9-9.9c0.6-12.1-0.8-19.7,0-19.9c0.8-0.1,3,8,2.6,8.1c-0.3,0.1-1.4-8.5-8-16.4c-4.5-5.4-10-8.7-16.2-12.4
			c-5-3-6.2-3.2-10.8-5.8c-4.6-2.6-11-6.8-18-13.2"/>
		<path class="st3" d="M248.1,199.2c-7.7-14.4-16.6-22.5-23.4-27.3c-6.6-4.6-13.1-9.5-19.8-14.1c-8.4-5.8-12.5-8.4-12.6-12.4
			c-0.1-4.4,4.8-7.8,9-10.8c10.5-7.3,16.9-5.2,27.9-12.4c4.8-3.1,10.4-6.8,9.9-10.8c-1-7.6-24.2-6.3-26.1-14.1
			c-1.9-7.8,18.5-22.2,36.9-22.3c1.5,0,5.5,0.3,13.5,0.8c12.3,0.9,15.1,1.3,21.6,1.7c9.5,0.5,9.2-0.2,21.6,0
			c8.6,0.1,15.9,0.6,30.6,1.7c13.9,1,13.7,1.2,22.5,1.7c13.3,0.7,23.4,0.8,27,0.8c2.7,0,13.8,0,28.8-0.8c16.5-0.9,30.2-2.5,44.1-1.7
			c1.8,0.1,4.2,0.3,9,0.8c13.6,1.4,15.4,2,17.1,3.3c4.6,3.4,5.3,8.9,5.4,9.9c0.4,3.8-1,6.4-2.7,9.9c-5.2,10.4-13.1,13.2-14.2,13.3
			c-0.1,0-0.2,0-0.2,0c-0.7-0.6,3.9-7.9,6.3-7.4c2.8,0.5-1,10.7,5.4,17.4c2.4,2.5,3.1,1.3,13.5,7.4c7,4.1,8.3,5.6,9,6.6
			c0,0,1.1,1.5,4.5,9.9l0,0c-6.8,7.8-13.2,11.8-18,14.1c-3.4,1.6-7.1,2.9-10.8,6.6c-2.5,2.6-2.6,3.9-6.3,8.3
			c-2.8,3.4-3.7,3.8-7.2,7.4c-8.1,8.6-6.5,9.8-9.9,11.6c-4.7,2.5-7.8,0-20.7,0c-8,0-7,0.9-13.5,0.8c-8.4-0.1-16.1-2-31.5-5.8
			c-3.5-0.9-7.2-1.8-12.6-2.5c-5.1-0.6-9-1-13.5,0c-5.5,1.3-6.3,3.4-10.8,5c-6.6,2.3-12.2,0.1-19.8-1.7c-6.7-1.5-14.3-1.8-29.7-2.5
			c-18.9-0.8-31.3,0.5-34.2,0.8c-4.8,0.5-8.8,1.2-11.7,1.7"/>
		<path class="st4" d="M135.5,435.6l45.9,73.6l25.2-16.1l48.6,64.9l85.5,70.3l73.8-35.6l79.5-82.7c0,0,17.7,10.8,18.6,13.2
			c0.9,2.5,72.1-113.3,72.1-113.3l-76.2-56l-24.6,18.2l-26.2,19.6v38.1l-6.2,30.6l-5.4,11.5l-9,16.6l-32.4-22.2l-51-6.6l-16.5,10.1
			L320,477c0,0-18,13-20.7,11.5s-27,0-27,0s-14.4-13.4-15.3-16.6c-0.9-3.2-10.2-4.8-7.4-8.1c2.9-3.3,0-12.4,0-12.4s0.7-9.9,0-13.2
			s0.7-8.3,0-10.8s-0.2-7.4,0-9.9s-0.2-8.3,0-10.8s1.6-3.3,0-6.6c-1.6-3.3-4.3-9.9-4.3-9.9l-7.2-8.2l-9.9-13.3
			c-10.8-7.4-9.1-7.4-14.9-9.1s-9.7-8.5-14.5-5.5c-4.8,3-12.8,3.8-12.8,3.8l-16.4,5l-14.4,9.4l-8.5,4.7l-3.1,8.3l-8.2,9.9l-5.4,12.4
			c-1.8,7.4,0,13.2,0,13.2l-0.8,7.4"/>
		<path d="M99.7,214.8c-30.9,15.2-46.9-19.6-13.6,65.4l-0.9,36.4l18.2,28c0,13.3,1,32.8,5.2,54.9c4.6,24,12.2,46.2,22.5,66.1
			c13.1,25.2,30.5,46.6,51.9,63.8l14,11.2l8.1-14.2c6.9,9.2,16.3,20.7,27.9,33.1c24.7,26.3,64.9,61.5,115.4,79.3l5.3,1.9l5.3-1.9
			c50.5-17.8,90.6-53,115.4-79.3c11.6-12.4,21-23.9,27.9-33.1l8.1,14.2l14-11.2c21.4-17.1,38.9-38.6,51.9-63.8
			c10.3-19.9,17.9-42.1,22.5-66.1c4.3-22.1,5.3-41.6,5.2-54.9l17.7-50.3l9-45.5c2.7-44.8-6.5,0.1-23-34
			c-13.4-27.6-33-51.2-58.2-70.3c-17.9-13.5-36-22.8-51.2-29l41.6-16.9l-23.4-13.5c-25.8-14.9-57.8-22.4-95.1-22.4
			c-31.5,0-57.7,5.5-67.7,7.9c-10-2.4-36.2-7.9-67.7-7.9c-37.3,0-69.3,7.5-95.1,22.4l-23.4,13.5l41.6,16.9
			c-15.2,6.2-33.3,15.5-51.2,29C132.7,163.6,113.1,187.3,99.7,214.8z M122.6,288.5c0-19.5-13-10.3-8.8-27.3
			c17.8-0.6,32.9,3.4,44.8,11.9c9.1,6.4,13.8,13.7,15.2,16.3c-4.4,19.3-4.6,33.7-4.6,35l0,5.2l16.8,17c-3,0.8-6.1,1.8-9.3,3.1
			c-12.6,4.8-28.1,13.7-41.7,29.9c-3.9-29.3-1.7-50.7-1.7-50.9l2-18.8L122.6,288.5z M245.1,223.3c25.5-19.1,61.1-24.7,105.7-16.5
			l2.9,0.5l2.9-0.5c44.6-8.1,80.2-2.6,105.7,16.5c38.1,28.5,45,80,46.2,96.2l-50.2,50.6c-10.6-15.5-21.4-25.6-22.3-26.4l-20.8,19
			c0.1,0.1,9.4,8.8,18.4,21.9c8.1,11.8,17.5,29.7,16.5,47.7c-0.7,13.1-6.7,24.6-18.2,35l-7-2.4l-66.4-22.5
			c1.2-8.8,3.9-19.7,10.1-23.6c11.1-7.2,30-18.6,0-20.4c0,0-7.2,3.6-15,3.6c-7.8,0-15-3.6-15-3.6c-30,1.8-11.1,13.2,0,20.4
			c6.2,4,8.9,14.8,10.1,23.6L282.4,465l-7,2.4c-11.5-10.4-17.5-21.9-18.2-34.9c-2-35.1,34.5-69.4,34.8-69.7l-10.4-9.5l10.4,9.5
			l-20.8-19c-0.9,0.8-11.7,10.9-22.3,26.4l-50.2-50.6C200.1,303.3,207,251.8,245.1,223.3z M399.6,502.3c-0.4,0.2-0.9,0.4-2.3,0.4
			l0,0c-3.4,0-8.4-1.3-13.8-2.7c-8.2-2.1-18.4-4.8-29.9-4.8c-11.5,0-21.7,2.7-29.9,4.8c-5.4,1.4-10.4,2.7-13.8,2.7
			c-1.4,0-2-0.2-2.3-0.4c-1.5-2-1.8-9.3-0.5-17l46.5-15.7l46.5,15.7C401.4,492.7,401.3,500.2,399.6,502.3z M549.5,454.5
			c-8.4,16-18.7,30.3-31,42.5L504,471.4L490.7,493c-0.1,0.2-14.3,23-39.1,49.3c-21.6,22.9-55.8,18.6-98,34.9
			c-42.2-16.3-76.4-12-98-34.9c-24.8-26.3-38.9-49.1-39.1-49.3l-13.3-21.7L188.8,497c-12.2-12.2-22.6-26.5-31-42.5
			c-5.6-10.7-10.3-22.3-14.1-34.5c18.5-42.9,52-49.3,65.4-50.1l25.8,26c-4.7,11.6-7.7,24.4-7,37.7c1.2,22.9,13,42.9,35,59.5l6.5,4.9
			l7.6-2.6c0.2,10.7,3.4,22.2,14,28.9c5.5,3.5,12,5.2,19.1,5.2c7.4,0,14.7-1.9,21.8-3.7c7.1-1.9,14.4-3.8,21.9-3.8
			c7.4,0,14.8,1.9,21.9,3.8c7.1,1.8,14.3,3.7,21.8,3.7l0,0c7.1,0,13.5-1.8,19.1-5.2c10.6-6.6,13.7-18.2,14-28.9l7.6,2.6l6.5-4.9
			c22-16.6,33.7-36.6,35-59.5c0.7-13.3-2.3-26.1-7-37.7l25.8-26c4.9,0.3,12.6,1.4,21.2,4.6c19.7,7.5,34.5,22.8,44.2,45.4
			C559.8,432.3,555.1,443.8,549.5,454.5z M572,309.9l2,18.8c0,0.3,2.2,21.7-1.7,50.9c-13.6-16.2-29.1-25.1-41.7-29.9
			c-3.2-1.2-6.3-2.2-9.3-3.1l16.8-17l0-5.2c0-1.4-0.2-15.7-4.6-35c2.7-4.9,18.3-29.3,60.1-28.1c4.2,17-8.8,9.4-8.8,28.9L572,309.9z
			 M580.9,225.8c1.4,2.8,2.7,5.7,3.9,8.6c-26.1,1.2-44.1,10.1-55.5,18.5c-2.2,1.6-4.2,3.3-6,4.9c-8.4-19.5-21.6-39.7-42.3-55.3
			c-0.6-0.5-1.3-0.9-1.9-1.4c3.1-11.1,13.2-30.6,45-40.8c2.3,1.6,4.5,3.2,6.8,4.9C552.5,181.7,569.3,202.1,580.9,225.8z M234.3,96.3
			c15.3-4.4,32.6-6.6,51.7-6.6c34.9,0,63.1,7.7,63.4,7.8l4.3,1.2l4.3-1.2c0.3-0.1,28.5-7.8,63.4-7.8c19,0,36.3,2.2,51.7,6.6
			l-64.3,26.1l46.5,8c0.3,0,16.9,3,38.8,13.1c-18.6,9.9-29.4,22.5-35.5,32.9c-2.2,3.7-3.9,7.2-5.2,10.6
			c-27.7-11.3-61.1-13.7-99.6-7.1c-38.5-6.6-71.9-4.2-99.6,7.1c-1.3-3.4-3.1-6.9-5.2-10.6c-6.1-10.4-16.9-23-35.5-32.8
			c21.8-10,38.5-13,38.8-13.1l46.5-8L234.3,96.3z M175.6,166.1c2.6-2,5.2-3.9,7.8-5.6c18.1,5.7,31.2,15,39.1,27.7
			c3,4.8,4.8,9.4,5.8,13.1c-0.6,0.4-1.2,0.9-1.8,1.3c-20.7,15.5-33.9,35.8-42.3,55.3c-1.8-1.6-3.9-3.3-6-4.9
			c-11.4-8.4-29.4-17.3-55.4-18.5c1.1-2.7,2.3-5.3,3.5-7.9C137.5,202.9,154.1,182.5,175.6,166.1z"/>
	</g>
</g>
<g>
	<path d="M241.1,305.2h6.7c0,0.8-0.1,1.5-0.1,2.3c0,26.4,21.4,47.8,47.8,47.8c26.4,0,47.8-21.5,47.8-47.8c0-0.8-0.1-1.5-0.1-2.3
		h21.8c-0.1,1.4-0.2,2.8-0.2,4.2c0,26.4,21.4,47.8,47.8,47.8c26.4,0,47.8-21.4,47.8-47.8c0-1.4-0.1-2.8-0.2-4.2h6
		c2.1,0,3.8-1.7,3.8-3.8c0-2.1-1.7-3.8-3.8-3.8H459c-5.3-20.7-24-36.1-46.3-36.1c-22.3,0-41,15.4-46.3,36.1h-24.1
		c-4.5-21.7-23.8-38-46.8-38s-42.2,16.3-46.8,38h-7.7c-2.1,0-3.8,1.7-3.8,3.8C237.3,303.5,239,305.2,241.1,305.2z M412.7,274.3
		c22.2,0,35.4,10,35.4,32.2c0,22.2-12.1,33.4-34.3,33.4c-22.2,0-34.3-9.2-34.3-31.4C379.4,286.2,390.5,274.3,412.7,274.3z
		 M295.5,271.8c22.2,0,33.6,10.1,33.6,32.3c0,22.2-11.4,36.9-33.6,36.9s-34.4-11.4-34.4-33.5C261.2,285.3,273.4,271.8,295.5,271.8z"
		/>
</g>
<g>
	<circle cx="299.8" cy="300.9" r="11.1"/>
	<path class="st5" d="M317.4,299.4c0,14.1-9.8,25.6-21.8,25.6c-12,0-21.8-11.5-21.8-25.6c0-14.1,9.8-25.6,21.8-25.6
		C307.6,273.8,317.4,285.3,317.4,299.4z M295.4,281.5c-8.5,0-15.5,9.1-15.5,20.4s6.9,16.5,15.5,16.5s15.5-5.2,15.5-16.5
		S304,281.5,295.4,281.5z"/>
</g>
<g>
	<ellipse cx="403.5" cy="304" rx="10.3" ry="11.1"/>
	<path class="st5" d="M387.2,302.4c0,14.1,9,25.6,20.2,25.6c11.1,0,20.2-11.5,20.2-25.6c0-14.1-9-25.6-20.2-25.6
		C396.3,276.8,387.2,288.3,387.2,302.4z M407.5,284.5c7.9,0,14.3,9.1,14.3,20.4c0,11.3-6.4,16.5-14.3,16.5s-14.3-5.2-14.3-16.5
		C393.2,293.7,399.6,284.5,407.5,284.5z"/>
</g>
</svg>
